<?xml version="1.0" standalone="no"?>
<!DOCTYPE svg PUBLIC "-//W3C//DTD SVG 20010904//EN"
 "http://www.w3.org/TR/2001/REC-SVG-20010904/DTD/svg10.dtd">
<svg version="1.0" xmlns="http://www.w3.org/2000/svg"
 width="460.000000pt" height="460.000000pt" viewBox="0 0 460.000000 460.000000"
 preserveAspectRatio="xMidYMid meet">
<metadata>
Created by potrace 1.14, written by Peter Selinger 2001-2017
</metadata>
<g transform="translate(0.000000,460.000000) scale(0.100000,-0.100000)"
fill="#000000" stroke="none">
<path d="M660 4592 c0 -4 55 -62 123 -128 67 -67 174 -176 237 -243 121 -128
249 -264 301 -318 34 -36 35 -50 6 -150 -19 -65 -9 -234 14 -249 5 -3 9 -48 9
-101 l0 -95 -27 7 c-16 3 -50 28 -78 55 -84 80 -118 110 -170 144 -28 19 -67
49 -87 67 -20 19 -52 47 -70 63 -18 15 -42 41 -53 56 -11 15 -47 50 -80 78
-33 27 -80 69 -105 92 -25 24 -70 64 -100 89 -30 25 -64 55 -76 66 -11 11 -65
56 -120 100 -111 90 -202 173 -248 225 -17 19 -54 60 -83 90 l-53 55 0 -103 0
-103 217 -214 c120 -119 249 -245 286 -282 37 -37 78 -74 92 -83 39 -25 285
-242 319 -280 17 -19 62 -64 101 -100 38 -36 105 -100 148 -143 85 -84 101
-88 119 -37 8 23 16 30 31 28 31 -5 34 -28 3 -28 -16 0 -26 -6 -26 -15 0 -22
4 -30 15 -30 22 -1 65 -39 65 -58 0 -11 7 -25 15 -31 8 -6 19 -39 23 -74 5
-35 15 -68 23 -72 8 -6 16 -37 20 -82 4 -40 10 -103 14 -140 7 -64 7 -68 -12
-68 -34 0 -70 37 -113 116 -67 121 -90 189 -90 266 0 39 -4 68 -10 68 -5 0
-10 -8 -10 -17 0 -13 -6 -9 -22 13 -12 17 -35 37 -52 44 -17 8 -40 22 -51 33
-11 10 -33 26 -50 34 -16 9 -35 22 -43 29 -7 8 -17 14 -21 14 -4 0 -16 8 -27
18 -10 9 -59 46 -107 82 -49 36 -123 93 -164 127 -41 35 -88 71 -104 80 -16
10 -29 21 -29 25 0 4 -6 8 -13 8 -8 0 -22 10 -33 21 -10 12 -35 32 -54 44 -19
13 -54 40 -77 61 -23 22 -86 71 -139 109 -54 39 -107 80 -119 93 -12 12 -25
22 -29 22 -4 0 -12 4 -19 10 -7 5 -27 21 -45 36 l-32 26 3 -488 c2 -269 7
-505 12 -524 4 -19 14 -39 21 -45 7 -5 17 -32 23 -60 30 -154 44 -214 61 -250
10 -22 26 -67 35 -100 9 -33 29 -88 46 -122 17 -36 29 -78 29 -102 0 -22 5
-43 10 -46 6 -3 10 -12 10 -18 0 -7 -4 -6 -10 3 -13 21 -13 -44 0 -90 6 -19
11 -53 12 -75 0 -22 5 -43 11 -46 5 -4 10 -24 12 -45 2 -36 32 -159 58 -244
17 -56 28 -119 36 -211 5 -47 13 -94 19 -105 8 -15 7 -23 -5 -37 -15 -16 -18
-16 -34 -1 -15 14 -20 14 -54 0 -49 -21 -52 -20 -60 7 -4 12 -14 38 -22 57 -9
19 -17 50 -18 70 -2 19 -15 62 -29 94 -15 32 -34 93 -43 135 -8 42 -21 87 -28
101 -7 14 -16 47 -19 74 -4 26 -19 82 -32 124 -14 42 -29 92 -34 112 -4 19 -8
-436 -9 -1037 l-1 -1073 1524 0 1525 0 -27 52 c-15 29 -34 61 -43 71 -9 10
-25 35 -35 55 -26 50 -87 146 -96 150 -5 2 -8 8 -8 13 0 11 -16 36 -197 311
-79 119 -168 249 -199 288 -46 59 -53 74 -44 90 6 12 21 20 35 20 16 0 25 6
25 16 0 13 3 14 13 5 8 -6 39 -24 70 -41 31 -16 85 -48 119 -70 35 -22 84 -51
110 -65 40 -21 49 -32 59 -67 12 -48 16 -57 53 -141 14 -31 34 -101 46 -155
11 -53 30 -128 41 -167 11 -38 26 -92 34 -120 7 -27 23 -81 35 -120 12 -38 24
-82 27 -98 l5 -27 294 0 c162 0 294 2 294 6 0 13 -167 289 -233 384 -70 101
-187 292 -187 305 0 4 -9 18 -20 32 -11 14 -18 29 -15 33 3 4 -2 11 -11 14
-11 4 -14 13 -11 27 3 11 0 22 -7 25 -7 3 -13 10 -13 17 -1 7 -4 27 -8 45 -6
26 -4 32 9 32 20 0 20 7 1 26 -17 17 -20 54 -5 54 13 0 13 57 0 65 -5 3 -7 12
-4 20 3 7 -2 26 -12 41 -10 14 -17 40 -16 55 1 16 -1 29 -5 29 -5 0 -9 19 -10
41 -2 36 0 40 15 34 9 -5 46 -18 82 -31 36 -13 66 -28 68 -34 2 -6 8 -8 12 -5
5 3 17 -7 27 -21 10 -15 54 -63 99 -108 44 -45 83 -89 87 -99 3 -9 11 -17 16
-17 6 0 7 -7 4 -17 -4 -10 -2 -14 5 -10 6 4 20 -7 33 -25 12 -18 27 -37 33
-43 12 -11 209 -272 244 -324 20 -30 23 -41 17 -95 -5 -46 -2 -70 10 -96 9
-19 14 -25 11 -13 -2 13 0 25 5 28 5 4 12 20 17 38 l8 32 45 -47 c24 -25 56
-69 72 -97 25 -47 27 -60 27 -160 0 -60 3 -116 6 -125 5 -14 39 -16 275 -16
l269 0 0 637 c0 515 -3 639 -13 652 -8 9 -24 41 -37 71 -12 30 -36 74 -51 97
-29 42 -36 59 -20 49 12 -8 37 24 45 56 4 18 15 30 30 34 13 3 29 17 35 30 8
18 11 208 11 651 l0 626 -37 31 c-57 49 -274 267 -313 316 -48 59 -95 112
-162 184 -32 34 -58 67 -58 74 0 6 -5 12 -10 12 -6 0 -14 8 -17 17 -4 9 -12
24 -19 33 -7 8 -36 47 -65 85 -29 39 -60 78 -71 88 -10 10 -18 22 -18 27 0 6
-13 22 -28 37 -31 30 -112 136 -112 146 0 3 -14 26 -30 50 -46 69 -42 85 32
135 57 39 71 40 117 5 47 -36 171 -162 171 -175 0 -13 26 -38 39 -38 6 0 11
-6 11 -14 0 -7 18 -33 40 -57 22 -24 40 -48 40 -52 0 -5 8 -6 18 -3 13 4 17 0
19 -21 0 -16 10 -34 22 -42 12 -7 21 -20 21 -28 0 -12 3 -13 15 -3 12 10 15 7
20 -14 3 -14 7 -37 10 -51 4 -17 12 -25 25 -25 11 0 20 -6 20 -14 0 -19 84
-144 115 -172 13 -12 33 -40 44 -63 12 -22 26 -41 31 -41 6 0 10 -9 10 -19 0
-10 6 -21 13 -24 7 -2 22 -23 32 -46 11 -22 28 -44 38 -47 10 -3 22 -15 27
-27 5 -13 9 281 9 706 l1 727 -1080 0 c-594 0 -1080 -3 -1080 -7 0 -4 9 -17
21 -29 11 -12 21 -31 22 -43 1 -11 7 -21 14 -21 6 0 11 -9 10 -20 -1 -20 -5
-20 -107 -13 -172 13 -317 9 -405 -11 -44 -10 -84 -22 -90 -27 -5 -5 -20 -9
-34 -9 -13 0 -32 -6 -40 -14 -9 -8 -39 -23 -67 -33 -45 -18 -52 -18 -73 -5
-20 14 -91 81 -91 86 0 2 -30 35 -67 75 l-68 71 -402 0 c-222 0 -403 -3 -403
-8z m2037 -750 c50 -1 128 -41 140 -72 5 -14 9 -54 9 -89 -1 -34 0 -58 2 -52
7 22 20 10 26 -24 5 -22 11 -33 18 -29 13 8 3 -86 -10 -95 -15 -11 -9 -49 7
-43 9 3 12 0 9 -9 -3 -8 -14 -14 -25 -15 -11 -1 -36 -13 -55 -27 -23 -18 -41
-24 -56 -20 -12 3 -19 10 -15 16 4 6 0 8 -10 4 -10 -4 -28 -2 -42 3 -15 6 -27
6 -30 0 -3 -5 -11 -7 -19 -4 -7 3 -18 -7 -24 -21 -6 -14 -17 -24 -23 -23 -6 2
-17 -15 -25 -37 -8 -26 -12 -31 -11 -15 1 14 -2 27 -8 30 -6 3 -11 -20 -13
-58 -2 -42 -8 -65 -17 -68 -8 -3 -11 -13 -8 -21 4 -9 -1 -19 -10 -25 -10 -5
-17 -17 -17 -28 0 -10 -6 -20 -12 -22 -15 -5 -22 -238 -8 -238 4 0 11 -7 14
-16 3 -8 2 -12 -4 -9 -6 4 -10 -5 -10 -20 0 -18 12 -37 35 -58 19 -17 35 -37
35 -45 0 -20 -98 -114 -106 -101 -4 7 -20 8 -41 4 -24 -4 -33 -3 -28 5 4 7 -6
10 -32 9 -54 -3 -163 -30 -163 -41 0 -5 -4 -6 -10 -3 -5 3 -10 0 -10 -7 0 -31
56 -49 146 -47 79 2 89 0 105 -19 9 -12 24 -22 32 -22 8 0 20 -6 26 -14 7 -8
23 -17 36 -20 14 -4 25 -13 25 -21 0 -8 5 -15 10 -15 6 0 10 -11 10 -24 0 -23
-4 -25 -60 -41 -3 -1 -21 -5 -40 -9 -19 -5 -44 -15 -56 -23 -27 -17 -123 -11
-135 9 -7 11 -9 11 -9 -1 0 -11 -3 -11 -16 0 -9 8 -40 16 -68 19 -48 5 -51 7
-53 35 0 17 -2 34 -2 39 -1 5 -7 3 -15 -3 -11 -9 -24 -9 -58 0 -63 18 -78 18
-96 0 -15 -15 -15 -15 -9 2 3 9 4 24 1 32 -8 20 -64 9 -86 -17 -19 -22 -16
-40 6 -32 10 4 14 -3 12 -25 -1 -17 2 -31 7 -31 5 0 7 -7 3 -15 -3 -9 0 -15 8
-15 8 0 16 -5 18 -12 3 -8 14 -6 35 7 29 17 37 17 90 6 32 -7 69 -17 83 -22
24 -9 159 -14 187 -7 19 4 94 -24 100 -38 3 -9 20 -14 49 -14 26 0 44 -5 44
-11 0 -7 7 -8 18 -4 9 4 46 11 82 16 128 18 140 21 140 35 0 20 17 17 25 -3 6
-17 7 -17 16 0 6 9 8 21 4 26 -7 12 42 51 64 51 9 0 25 -10 35 -21 22 -26 29
-19 54 56 l20 60 -21 19 c-18 15 -32 17 -74 13 -49 -5 -53 -4 -82 29 -18 19
-34 48 -38 64 -3 17 -9 30 -13 30 -5 0 -11 13 -15 30 -4 16 -29 64 -56 105
-44 68 -48 80 -43 115 6 37 5 40 -17 40 -17 0 -20 3 -12 11 6 6 9 17 7 24 -5
13 23 14 44 1 27 -16 10 20 -18 39 -55 37 -48 48 30 43 44 -2 74 -9 79 -17 5
-7 11 -12 15 -11 9 1 56 -36 56 -45 0 -3 -4 -3 -10 0 -5 3 -10 2 -10 -4 0 -5
-9 -8 -20 -6 -11 2 -20 0 -20 -4 0 -14 57 -21 165 -21 71 0 111 -5 132 -15 34
-17 62 -45 45 -45 -6 0 -12 3 -15 8 -2 4 -2 0 0 -8 19 -69 24 -123 19 -174 -4
-34 -7 -67 -8 -75 -1 -7 -16 -29 -35 -48 -18 -20 -33 -40 -33 -45 0 -5 -10
-12 -21 -16 -20 -8 -20 -9 -4 -25 9 -9 13 -17 9 -17 -3 0 -2 -6 4 -13 13 -16
13 -107 1 -107 -5 0 -9 -8 -9 -17 0 -10 -19 -55 -42 -100 -31 -61 -45 -79 -51
-68 -4 8 -15 15 -23 15 -8 0 -17 7 -20 15 -4 8 -12 15 -19 15 -7 0 -15 9 -18
21 -7 25 -27 16 -27 -11 0 -11 -9 -24 -20 -30 -12 -7 -20 -21 -20 -37 0 -21
-3 -24 -12 -15 -9 9 -16 5 -30 -18 -10 -17 -24 -30 -32 -30 -8 0 -17 -8 -20
-17 -3 -10 -18 -24 -33 -30 -22 -11 -29 -10 -43 2 -27 25 -32 17 -9 -15 24
-31 20 -52 -5 -31 -23 19 -32 7 -28 -38 2 -23 8 -38 13 -35 5 3 9 -2 9 -10 0
-24 -10 -19 -47 20 -18 21 -37 34 -40 30 -4 -4 -2 -11 6 -15 9 -6 7 -10 -10
-14 -21 -6 -22 -4 -16 56 3 34 2 53 -1 42 -4 -11 -14 -20 -22 -20 -8 0 -22
-14 -30 -31 -18 -37 -60 -84 -77 -84 -6 0 -13 6 -16 13 -3 7 -9 2 -15 -13 -9
-22 -11 -23 -17 -7 -4 10 -3 29 3 43 7 15 8 24 2 24 -6 0 -10 -6 -10 -14 0
-25 -19 -28 -37 -7 -11 14 -21 17 -29 10 -8 -7 -13 0 -19 23 -4 18 -9 27 -12
20 -4 -10 -9 -8 -20 7 -8 12 -18 19 -23 16 -5 -3 -11 -1 -15 5 -4 6 -11 8 -16
4 -6 -3 -7 4 -3 20 4 17 2 26 -5 26 -7 0 -9 10 -5 27 6 21 4 25 -9 20 -11 -4
-14 -2 -11 8 5 11 -2 13 -25 10 -25 -3 -31 0 -31 15 0 12 -10 19 -32 23 -39 6
-82 -17 -74 -39 7 -19 -23 -31 -34 -14 -5 8 -9 9 -14 1 -13 -21 -72 -12 -112
17 -53 39 -124 125 -124 151 0 11 -6 19 -12 17 -7 -1 -10 -1 -5 1 12 7 8 32
-9 58 -9 14 -14 32 -11 40 4 8 -1 21 -9 30 -9 8 -17 36 -18 63 -1 26 -6 54
-10 61 -4 7 -5 15 -2 18 3 3 1 12 -5 19 -7 8 -7 14 0 18 6 4 7 17 3 29 -4 12
-7 40 -6 62 0 22 -4 43 -8 46 -15 10 -29 136 -31 264 -1 111 9 188 34 255 5
14 12 36 15 50 18 83 22 91 52 84 18 -4 23 -2 14 4 -10 7 -9 14 6 33 17 20 22
21 36 10 9 -8 16 -9 16 -3 0 6 -6 12 -12 15 -10 3 -10 7 1 20 7 10 18 17 23
17 6 0 5 -7 -2 -15 -7 -8 -8 -15 -3 -15 5 0 19 18 32 40 12 22 26 40 32 40 5
0 9 6 9 13 0 8 15 34 32 58 53 72 78 109 78 117 0 19 112 80 175 96 83 21 264
37 469 42 82 2 151 6 154 8 3 3 10 2 16 -3 6 -4 25 -9 43 -9z m626 -396 c15
-16 27 -32 27 -35 0 -4 25 -33 55 -65 30 -32 55 -62 55 -67 0 -5 7 -9 15 -9 8
0 22 -17 32 -37 19 -40 31 -56 78 -105 17 -17 29 -35 27 -40 -1 -4 4 -8 11 -8
7 0 24 -15 37 -32 36 -50 42 -58 117 -135 38 -40 68 -73 65 -73 -2 0 15 -16
38 -35 23 -19 46 -35 51 -35 5 0 9 -10 9 -23 0 -13 9 -26 23 -32 17 -8 21 -17
19 -39 -3 -24 0 -28 17 -23 12 3 22 -1 25 -10 10 -24 7 -33 -9 -33 -9 0 -15
-10 -15 -26 l0 -26 -82 7 c-101 9 -127 25 -128 78 0 26 -4 37 -15 37 -8 0 -15
7 -15 15 0 9 -7 18 -15 21 -8 3 -24 22 -36 42 -17 28 -24 33 -27 20 -7 -33
-22 -18 -22 22 0 22 5 40 10 40 6 0 10 7 10 15 0 11 -11 15 -40 15 -27 0 -43
-5 -46 -15 -12 -31 -40 -16 -54 28 -9 26 -15 36 -18 25 -2 -14 -14 -18 -43
-18 -28 0 -39 -4 -39 -15 0 -18 -16 -20 -26 -3 -4 6 0 16 9 23 23 17 21 25 -5
25 -27 -1 -58 -22 -58 -40 0 -18 31 -39 58 -40 17 0 22 -6 22 -25 0 -22 -4
-25 -38 -25 -27 0 -41 6 -51 21 -11 18 -11 23 1 31 10 8 9 9 -4 4 -10 -3 -20
-1 -23 4 -4 6 -14 10 -23 10 -9 0 -22 10 -28 23 -75 148 -94 197 -76 197 5 0
7 12 4 26 -3 15 1 29 8 34 8 5 14 33 16 72 3 43 1 57 -6 43 -8 -18 -9 -17 -9
7 -1 15 5 31 13 35 23 14 38 53 31 84 -4 19 -3 29 5 29 8 0 10 11 6 34 -5 28
-4 33 12 32 10 0 30 -14 45 -30z m-498 -286 c8 -26 -1 -40 -26 -40 -17 0 -18
-3 -7 -20 9 -13 20 -18 33 -14 19 5 19 4 2 -6 -15 -9 -107 -10 -156 -1 -10 2
23 31 35 31 8 0 14 5 14 10 0 6 -5 10 -11 10 -6 0 -3 8 6 17 14 14 40 22 97
32 4 0 9 -8 13 -19z m5 -215 c0 -8 -9 -15 -20 -15 -20 0 -26 11 -13 23 12 13
33 7 33 -8z m40 -6 c0 -5 -4 -9 -10 -9 -5 0 -10 7 -10 16 0 8 5 12 10 9 6 -3
10 -10 10 -16z m540 -219 c0 -22 -4 -40 -10 -40 -5 0 -10 18 -10 40 0 22 5 40
10 40 6 0 10 -18 10 -40z m-2570 -20 c0 -5 -5 -10 -11 -10 -5 0 -7 5 -4 10 3
6 8 10 11 10 2 0 4 -4 4 -10z m-10 -29 c0 -20 53 -71 74 -71 19 0 24 -8 34
-51 7 -28 12 -59 12 -70 0 -10 4 -19 9 -19 6 0 13 -20 16 -44 4 -25 13 -47 21
-50 9 -4 14 -21 14 -52 0 -28 8 -59 19 -78 10 -17 31 -85 47 -151 16 -66 32
-123 37 -126 5 -3 7 -28 5 -55 -2 -35 1 -48 10 -47 6 2 12 -6 12 -17 0 -11 -5
-20 -10 -20 -6 0 -10 -6 -9 -12 4 -21 -12 -78 -21 -78 -13 0 -30 35 -30 60 0
13 -9 24 -25 30 -14 5 -25 15 -25 21 0 6 -6 9 -14 6 -8 -3 -16 2 -19 13 -3 11
0 21 6 23 11 3 4 22 -45 121 -6 10 -12 34 -14 53 -3 20 -9 43 -14 53 -6 10
-10 32 -10 49 0 17 -5 31 -11 31 -5 0 -8 4 -4 10 3 5 2 17 -4 27 -5 10 -16 43
-25 73 -12 42 -13 56 -3 63 8 6 7 7 -5 4 -34 -11 -51 92 -30 183 6 25 7 47 3
50 -6 4 -31 65 -31 76 0 2 7 4 15 4 8 0 15 -4 15 -9z m3220 -83 c0 -9 4 -8 10
2 7 11 10 6 9 -20 0 -29 -2 -31 -9 -15 -8 18 -9 17 -9 -7 -1 -44 -21 -32 -21
12 0 22 5 40 10 40 6 0 10 -6 10 -12z m-1723 -39 c-12 -7 -27 -7 -45 0 -25 9
-24 9 18 10 36 0 41 -2 27 -10z m1803 -10 c0 -5 -11 -9 -25 -9 -14 0 -25 6
-25 14 0 9 8 12 25 8 14 -2 25 -8 25 -13z m-126 -17 c2 -4 1 -14 -4 -21 -6
-11 -22 -12 -65 -7 -73 8 -90 19 -45 27 53 10 108 10 114 1z m153 -44 c-3 -7
-5 -2 -5 12 0 14 2 19 5 13 2 -7 2 -19 0 -25z m-2247 -48 c-9 -17 -30 -28 -30
-16 0 16 15 36 26 36 12 0 12 -4 4 -20z m2170 -6 c0 -14 -3 -14 -15 -4 -8 7
-15 14 -15 16 0 2 7 4 15 4 8 0 15 -7 15 -16z m-2420 -462 c0 -4 -5 -13 -12
-20 -20 -20 28 -62 63 -55 20 4 29 1 29 -7 0 -8 3 -10 6 -7 4 4 14 -2 23 -12
9 -10 32 -21 52 -25 24 -4 40 -15 49 -31 12 -23 32 -34 143 -84 52 -23 237
-91 249 -91 4 0 73 -31 152 -70 80 -39 151 -70 158 -70 7 0 23 -7 36 -15 16
-12 27 -13 41 -5 28 14 51 12 51 -5 0 -21 22 -19 48 5 12 12 22 16 22 10 0 -6
5 -8 10 -5 6 4 8 11 5 16 -4 5 -1 9 4 9 6 0 11 8 11 18 0 9 9 31 20 47 l21 30
-6 -30 c-3 -16 5 -3 16 30 12 33 25 62 29 65 4 3 10 12 13 20 4 11 6 10 7 -5
2 -26 6 -48 15 -75 5 -16 4 -20 -5 -15 -9 6 -9 3 -1 -14 7 -11 9 -21 5 -21 -3
0 -1 -7 6 -15 9 -10 9 -15 1 -15 -19 0 -12 -17 9 -23 12 -3 24 1 31 11 9 14 9
13 5 -7 -5 -27 10 -65 23 -56 21 13 42 -43 44 -117 0 -21 4 -38 7 -38 24 0 96
-244 80 -270 -9 -14 -20 11 -20 45 0 12 -7 40 -16 61 -77 191 -174 294 -278
294 -63 0 -242 -72 -292 -117 -26 -23 -124 -187 -124 -207 0 -3 8 -3 18 0 10
4 13 3 6 -3 -6 -4 -16 -17 -23 -28 -12 -19 -12 -19 -6 -1 6 19 5 19 -14 2 -19
-17 -21 -16 -58 25 -21 23 -43 47 -48 53 -6 6 -58 63 -116 126 -114 126 -152
162 -339 325 -155 136 -218 200 -226 228 -6 26 12 115 28 134 11 14 48 18 48
5z m930 -22 c0 -5 -2 -10 -4 -10 -3 0 -8 5 -11 10 -3 6 -1 10 4 10 6 0 11 -4
11 -10z m-116 -75 c3 -8 1 -15 -4 -15 -6 0 -10 7 -10 15 0 8 2 15 4 15 2 0 6
-7 10 -15z m-1334 -115 c0 -5 -4 -10 -10 -10 -5 0 -10 5 -10 10 0 6 5 10 10
10 6 0 10 -4 10 -10z m-750 -520 c0 -5 -5 -10 -11 -10 -5 0 -7 5 -4 10 3 6 8
10 11 10 2 0 4 -4 4 -10z m-30 -10 c0 -5 -5 -10 -11 -10 -5 0 -7 5 -4 10 3 6
8 10 11 10 2 0 4 -4 4 -10z m2667 -386 c-3 -3 -12 -4 -19 -1 -8 3 -5 6 6 6 11
1 17 -2 13 -5z"/>
<path d="M2872 3530 c0 -14 2 -19 5 -12 2 6 2 18 0 25 -3 6 -5 1 -5 -13z"/>
<path d="M1785 3382 c-16 -2 -38 -10 -49 -18 -11 -8 -31 -14 -45 -14 -13 0
-33 -8 -43 -17 -53 -48 -73 -76 -75 -101 0 -15 -3 -36 -5 -47 -2 -15 2 -19 16
-17 11 2 15 -1 11 -7 -3 -6 1 -11 11 -11 14 0 15 3 6 12 -19 19 -14 35 13 42
15 4 22 11 19 20 -6 15 27 39 49 34 6 -1 22 4 35 11 13 7 30 10 38 7 8 -3 14
-1 14 3 0 18 81 1 141 -29 43 -22 59 -35 55 -46 -3 -8 1 -17 9 -20 26 -10 16
-32 -17 -40 -31 -6 -32 -7 -10 -15 36 -14 25 -27 -33 -39 -61 -13 -113 -10
-105 5 3 6 13 9 23 8 10 -2 16 1 13 6 -3 5 13 12 37 17 41 8 41 9 -25 12 -37
1 -77 -2 -88 -8 -11 -6 -20 -7 -20 -3 0 5 14 14 32 21 17 6 29 15 25 19 -10 9
-51 12 -57 3 -8 -11 -63 -22 -56 -11 8 13 -13 26 -24 15 -4 -5 -10 -22 -14
-38 -6 -24 -4 -28 10 -22 13 5 15 2 10 -17 -9 -36 4 -67 36 -83 17 -9 32 -13
36 -10 3 3 11 1 17 -4 7 -6 29 -11 49 -12 25 -1 36 -6 36 -17 1 -14 2 -13 11
2 6 10 15 14 22 10 20 -12 49 -10 54 4 8 22 24 4 17 -21 -4 -19 -1 -24 20 -28
14 -3 28 -2 31 1 4 3 20 6 36 7 32 2 69 29 69 50 0 7 9 19 21 28 15 10 19 20
14 35 -7 22 -5 23 58 23 28 1 37 13 15 21 -10 3 -10 7 1 20 11 14 11 18 -3 23
-9 3 -13 11 -9 17 4 6 0 8 -10 4 -8 -3 -18 0 -21 8 -3 10 10 17 50 25 50 11
55 14 50 33 -3 12 -6 25 -6 30 0 4 -7 7 -15 7 -9 0 -15 10 -15 26 0 17 4 23
13 18 8 -5 7 -2 -2 10 -16 19 -33 4 -23 -22 3 -10 1 -13 -6 -8 -7 4 -12 14
-12 22 0 8 -5 14 -11 14 -14 0 -39 25 -39 39 0 6 -8 11 -17 12 -56 3 -343 3
-368 1z m275 -336 c0 -3 -4 -8 -10 -11 -5 -3 -10 -1 -10 4 0 6 5 11 10 11 6 0
10 -2 10 -4z"/>
<path d="M2510 3260 c0 -5 5 -10 10 -10 6 0 10 5 10 10 0 6 -4 10 -10 10 -5 0
-10 -4 -10 -10z"/>
<path d="M2149 2432 c-22 -15 -25 -21 -17 -44 8 -23 13 -26 28 -18 12 6 16 17
13 30 -3 11 0 27 7 35 16 19 2 18 -31 -3z"/>
<path d="M2190 2405 c0 -14 4 -25 9 -25 12 0 23 29 15 41 -10 18 -24 9 -24
-16z"/>
<path d="M2278 2333 c7 -3 16 -2 19 1 4 3 -2 6 -13 5 -11 0 -14 -3 -6 -6z"/>
<path d="M2215 2270 c3 -5 13 -10 21 -10 8 0 12 5 9 10 -3 6 -13 10 -21 10 -8
0 -12 -4 -9 -10z"/>
<path d="M2664 2225 c-9 -22 1 -29 15 -11 8 10 9 16 1 21 -5 3 -13 -1 -16 -10z"/>
<path d="M2690 2154 c0 -8 5 -12 10 -9 6 3 10 10 10 16 0 5 -4 9 -10 9 -5 0
-10 -7 -10 -16z"/>
<path d="M2455 2152 c-42 -5 -65 -33 -65 -82 0 -38 11 -52 25 -30 3 6 1 10 -6
10 -12 0 -3 15 9 15 4 0 13 4 21 9 11 7 13 3 9 -18 -5 -24 -3 -27 14 -23 14 4
22 -1 28 -19 10 -25 30 -33 30 -11 0 7 -5 18 -12 25 -9 9 -9 18 -1 34 21 43
22 56 5 54 -8 0 -18 8 -21 19 -5 15 -13 19 -36 17z"/>
<path d="M2350 2030 c0 -5 5 -10 10 -10 6 0 10 5 10 10 0 6 -4 10 -10 10 -5 0
-10 -4 -10 -10z"/>
<path d="M2115 2020 c-3 -5 -1 -10 4 -10 6 0 11 5 11 10 0 6 -2 10 -4 10 -3 0
-8 -4 -11 -10z"/>
<path d="M2290 1965 c-10 -12 -4 -23 23 -44 15 -12 17 -10 17 21 0 36 -20 47
-40 23z"/>
<path d="M3280 2985 c0 -8 2 -15 4 -15 2 0 6 7 10 15 3 8 1 15 -4 15 -6 0 -10
-7 -10 -15z"/>
<path d="M3843 2720 c0 -25 2 -35 4 -22 2 12 2 32 0 45 -2 12 -4 2 -4 -23z"/>
<path d="M2670 1429 c0 -5 5 -7 10 -4 6 3 10 8 10 11 0 2 -4 4 -10 4 -5 0 -10
-5 -10 -11z"/>
<path d="M3002 1410 c0 -14 2 -19 5 -12 2 6 2 18 0 25 -3 6 -5 1 -5 -13z"/>
<path d="M280 1450 c0 -30 13 -40 25 -20 8 13 -4 50 -16 50 -5 0 -9 -13 -9
-30z"/>
</g>
</svg>
